<svg id="Layer_4" data-name="Layer 4" xmlns="http://www.w3.org/2000/svg" viewBox="0 0 634.79 575.08"><defs><style>.cls-1{fill:#8f2d56;}.cls-2{fill:#08b;}.cls-3{fill:#ffd166;}.cls-4{fill:#ef476f;}.cls-5{fill:#485b89;}.cls-6{fill:#16ac5b;}.cls-7{fill:#f78c6b;}</style></defs><title>mimo-logo</title><rect class="cls-1" y="0.08" width="170" height="575" rx="85" ry="85"/><rect class="cls-2" x="198.85" y="75.93" width="170" height="575" rx="85" ry="85" transform="translate(-239.73 116.03) rotate(-35)"/><rect class="cls-3" x="431.24" y="75.8" width="170" height="575" rx="85" ry="85" transform="translate(648.14 844.5) rotate(-145)"/><rect class="cls-4" x="547.39" y="112.59" width="170" height="575" rx="85" ry="85" transform="translate(1182.18 687.67) rotate(-180)"/><path class="cls-5" d="M197.36,118q-1.15-.43-2.31-.82l-1-.34a85.7,85.7,0,0,0-48.2-1.41l-.57.16c-1.06.29-2.13.59-3.18.93s-2.11.7-3.15,1.07l-.55.19a85.7,85.7,0,0,0-38.68,28.8l-.62.84q-.73,1-1.42,2a85.31,85.31,0,0,0,.39,96.88L252.61,467V197.59A85.31,85.31,0,0,0,197.36,118Z" transform="translate(-82.61 -112.51)"/><path class="cls-6" d="M469.63,480.56,400,381.12l-69.53,99.3a85.25,85.25,0,0,0,20.87,118.38h0c36.64,25.65,87,18.15,114.73-16.08C489.2,554,491.77,512.18,469.63,480.56Z" transform="translate(-82.61 -112.51)"/><path class="cls-7" d="M711.93,167.72a85.31,85.31,0,0,0-79.54-55.13h0a85.25,85.25,0,0,0-85,85V467L702,246.17a85,85,0,0,0,11-75.26l-.15-.43C712.6,169.55,712.27,168.64,711.93,167.72Z" transform="translate(-82.61 -112.51)"/></svg>