<?xml version="1.0" encoding="utf-8"?>
<!-- Generator: Adobe Illustrator 21.1.0, SVG Export Plug-In . SVG Version: 6.00 Build 0)  -->
<svg version="1.1" id="Layer_1" xmlns="http://www.w3.org/2000/svg" xmlns:xlink="http://www.w3.org/1999/xlink" x="0px" y="0px"
	 viewBox="0 0 48 48" style="enable-background:new 0 0 48 48;" xml:space="preserve">
<style type="text/css">
	.st0{fill:none;}
	.st1{opacity:0.5;}
</style>
<path class="st0" d="M0,0h48v48H0V0z"/>
<g>
	<g id="surface1" class="st1">
		<path d="M22.1,16.6l14.9,13.9l-6.1,0.5l-1.1,0.1l0.5,1l3.7,8.1l-2.7,1.2l-3.5-8.2l-0.4-1L26.4,33l-4.3,4L22.1,16.6 M22.1,14.3
			c-0.3,0-0.6,0.1-0.9,0.2c-0.8,0.4-1.4,1.2-1.4,2.1l0,20.5c0,0.9,0.5,1.7,1.4,2.1c0.3,0.1,0.6,0.2,0.9,0.2c0.6,0,1.1-0.2,1.5-0.6
			l2.8-2.6l2.7,6.2c0.2,0.6,0.7,1,1.2,1.2c0.3,0.1,0.5,0.2,0.8,0.2c0.3,0,0.6-0.1,0.9-0.2l2.7-1.2c0.6-0.2,1-0.7,1.2-1.3
			c0.2-0.6,0.2-1.2-0.1-1.7l-2.8-6.2l4-0.4c0.9-0.1,1.6-0.7,1.9-1.5c0.3-0.8,0.1-1.8-0.6-2.4L23.6,14.9
			C23.2,14.5,22.6,14.3,22.1,14.3z"/>
	</g>
	<g>
		<path class="st1" d="M21.1,12.1L21.1,12.1c-0.6,0-1.1-0.5-1.1-1.1V5.5c0-0.6,0.5-1.1,1.1-1.1h0c0.6,0,1.1,0.5,1.1,1.1v5.5
			C22.2,11.6,21.7,12.1,21.1,12.1z"/>
		<path class="st1" d="M17.9,13.4L17.9,13.4c-0.4,0.4-1.2,0.4-1.6,0l-3.9-3.9c-0.4-0.4-0.4-1.2,0-1.6l0,0c0.4-0.4,1.2-0.4,1.6,0
			l3.9,3.9C18.3,12.2,18.3,12.9,17.9,13.4z"/>
		<path class="st1" d="M16.6,16.6L16.6,16.6c0,0.6-0.5,1.1-1.1,1.1H9.9c-0.6,0-1.1-0.5-1.1-1.1v0c0-0.6,0.5-1.1,1.1-1.1h5.5
			C16,15.4,16.6,15.9,16.6,16.6z"/>
		<path class="st1" d="M17.9,19.8L17.9,19.8c0.4,0.4,0.4,1.2,0,1.6L14,25.2c-0.4,0.4-1.2,0.4-1.6,0h0c-0.4-0.4-0.4-1.2,0-1.6
			l3.9-3.9C16.7,19.3,17.4,19.3,17.9,19.8z"/>
		<path class="st1" d="M24.3,13.4L24.3,13.4c-0.4-0.4-0.4-1.2,0-1.6l3.9-3.9c0.4-0.4,1.2-0.4,1.6,0l0,0c0.4,0.4,0.4,1.2,0,1.6
			l-3.9,3.9C25.5,13.9,24.7,13.9,24.3,13.4z"/>
	</g>
</g>
</svg>
