<svg id="Layer_2" data-name="Layer 2" xmlns="http://www.w3.org/2000/svg" xmlns:xlink="http://www.w3.org/1999/xlink" viewBox="0 0 120 120"><defs><style>.cls-1{fill:none;}.cls-2{clip-path:url(#clip-path);}.cls-3{fill:#1976d2;}.cls-4{fill:#fff;}</style><clipPath id="clip-path"><path class="cls-1" d="M42,.5H78c11.95,0,17.92,0,24.35,2a25.28,25.28,0,0,1,15.11,15.11c2,6.43,2,12.4,2,24.35V78c0,11.95,0,17.92-2,24.35a25.27,25.27,0,0,1-15.11,15.11c-6.43,2-12.4,2-24.35,2H42c-12,0-17.92,0-24.35-2a25.27,25.27,0,0,1-15.12-15.1C.5,95.93.5,90,.5,78V42c0-12,0-17.92,2-24.35A25.28,25.28,0,0,1,17.64,2.53C24.07.5,30,.5,42,.5h0"/></clipPath></defs><title>email</title><g class="cls-2"><g id="App_Icon" data-name="App Icon"><g id="instagram"><rect class="cls-3" x="-11" y="-7" width="152" height="141"/><path class="cls-1" d="M17.67,17.67h84.67v84.67H17.67Z"/><path class="cls-1" d="M11,11h98v98H11Z"/><path class="cls-1" d="M14.33,14.33h91.33v91.33H14.33Z"/><path class="cls-4" d="M90.44,29.56H29.56A7.6,7.6,0,0,0,22,37.17l0,45.67a7.63,7.63,0,0,0,7.61,7.61H90.44a7.63,7.63,0,0,0,7.61-7.61V37.17A7.63,7.63,0,0,0,90.44,29.56Zm0,53.28H29.56V44.78L60,63.81l30.44-19ZM60,56.19l-30.44-19H90.44Z"/></g></g></g></svg>