<svg id="clipping_mask" data-name="clipping mask" xmlns="http://www.w3.org/2000/svg" xmlns:xlink="http://www.w3.org/1999/xlink" viewBox="0 0 120 120"><defs><style>.cls-1{fill:#fff;}.cls-2{mask:url(#mask);}.cls-3{fill:#3d5a98;}</style><mask id="mask" x="0" y="0" width="120" height="120" maskUnits="userSpaceOnUse"><path class="cls-1" d="M42,.5H78c11.95,0,17.92,0,24.35,2a25.28,25.28,0,0,1,15.11,15.11c2,6.43,2,12.4,2,24.35V78c0,11.95,0,17.92-2,24.35a25.27,25.27,0,0,1-15.11,15.11c-6.43,2-12.4,2-24.35,2H42c-11.95,0-17.92,0-24.35-2A25.27,25.27,0,0,1,2.53,102.36C.5,95.93.5,90,.5,78V42c0-11.95,0-17.92,2-24.35A25.28,25.28,0,0,1,17.64,2.53C24.07.5,30,.5,42,.5h0"/></mask></defs><title>facebook</title><g class="cls-2"><g id="App_Icon" data-name="App Icon"><g id="facebook"><rect id="Blue" class="cls-3" width="120" height="120" rx="6.62" ry="6.62"/><path id="f" class="cls-1" d="M82.8,120V73.53H98.4l2.34-18.11H82.8V43.86c0-5.24,1.46-8.82,9-8.82h9.59V18.84a128.33,128.33,0,0,0-14-.71c-13.83,0-23.29,8.44-23.29,23.94V55.42H48.46V73.53H64.1V120Z"/></g></g></g></svg>