<svg id="clipping_mask" data-name="clipping mask" xmlns="http://www.w3.org/2000/svg" xmlns:xlink="http://www.w3.org/1999/xlink" viewBox="0 0 120 120"><defs><style>.cls-1{fill:#fff;}.cls-2{mask:url(#mask);}.cls-3{fill:#dc4e41;}</style><mask id="mask" x="-3" y="-3" width="125" height="125" maskUnits="userSpaceOnUse"><path class="cls-1" d="M42,.5H78c11.95,0,17.92,0,24.35,2a25.28,25.28,0,0,1,15.11,15.11c2,6.43,2,12.4,2,24.35V78c0,11.95,0,17.92-2,24.35a25.27,25.27,0,0,1-15.11,15.11c-6.43,2-12.4,2-24.35,2H42c-11.95,0-17.92,0-24.35-2A25.27,25.27,0,0,1,2.53,102.36C.5,95.93.5,90,.5,78V42c0-11.95,0-17.92,2-24.35A25.28,25.28,0,0,1,17.64,2.53C24.07.5,30,.5,42,.5h0"/></mask></defs><title>googleplus</title><g class="cls-2"><g id="App_Icon" data-name="App Icon"><g id="google"><rect class="cls-3" x="-3" y="-3" width="125" height="125"/><g id="svg_1" data-name="svg 1"><g id="svg_2" data-name="svg 2"><circle id="_Path_" data-name="&lt;Path&gt;" class="cls-3" cx="60" cy="60.1" r="59"/></g><g id="svg_3" data-name="svg 3"><path id="svg_4" data-name="svg 4" class="cls-3" d="M21.54,60.63a24.31,24.31,0,0,0,16.4,23c9.06,3,20.2.77,26.23-7,4.4-5.44,5.4-12.68,4.93-19.45-7.76-.07-15.52,0-23.26,0,0,2.76,0,5.52,0,8.28,4.65.13,9.29.07,13.94.16-1.17,4-3.84,7.76-7.9,9.21-7.83,3.45-17.82-1.06-20.28-9.27-3-7.86,1.89-17.35,9.93-19.64,5-1.75,10.12.22,14.38,2.81,2.16-2,4.18-4.18,6.17-6.37a24.33,24.33,0,0,0-17.47-6C32.05,36.5,21.06,48.09,21.54,60.63Z"/><path id="svg_5" data-name="svg 5" class="cls-3" d="M84.19,50.18c0,2.31,0,4.63-.06,6.95l-6.95,0v6.92l6.95,0c0,2.31,0,4.62,0,6.95,2.3,0,4.61,0,6.92,0,0-2.32,0-4.63,0-7l6.95,0V57.17l-6.95,0c0-2.31,0-4.63,0-6.95Z"/><g id="svg_6" data-name="svg 6"><path id="svg_7" data-name="svg 7" class="cls-1" d="M21.54,60.63C21.06,48.09,32.05,36.5,44.61,36.35a24.33,24.33,0,0,1,17.47,6c-2,2.18-4,4.34-6.17,6.37-4.26-2.59-9.4-4.56-14.38-2.81-8,2.29-12.9,11.78-9.93,19.64,2.46,8.21,12.45,12.72,20.28,9.27,4.05-1.45,6.73-5.19,7.9-9.21-4.65-.09-9.29,0-13.94-.16,0-2.76,0-5.52,0-8.28,7.75,0,15.51,0,23.26,0,.48,6.77-.52,14-4.93,19.45-6,7.76-17.17,10-26.23,7a24.31,24.31,0,0,1-16.4-23Z"/><path id="svg_8" data-name="svg 8" class="cls-1" d="M84.19,50.18H91.1c0,2.31,0,4.63,0,6.95l6.95,0v6.92l-6.95,0c0,2.32,0,4.63,0,7-2.31,0-4.62,0-6.92,0,0-2.32,0-4.63,0-6.95l-6.95,0V57.17l6.95,0C84.15,54.82,84.17,52.49,84.19,50.18Z"/></g></g></g></g></g></g></svg>