<svg id="clipping_mask" data-name="clipping mask" xmlns="http://www.w3.org/2000/svg" xmlns:xlink="http://www.w3.org/1999/xlink" viewBox="0 0 120 120"><defs><style>.cls-1{fill:#fff;}.cls-2{mask:url(#mask);}.cls-3{fill:#da3175;}</style><mask id="mask" x="-11" y="-7" width="152" height="141" maskUnits="userSpaceOnUse"><path class="cls-1" d="M42,.5H78c11.95,0,17.92,0,24.35,2a25.28,25.28,0,0,1,15.11,15.11c2,6.43,2,12.4,2,24.35V78c0,11.95,0,17.92-2,24.35a25.27,25.27,0,0,1-15.11,15.11c-6.43,2-12.4,2-24.35,2H42c-11.95,0-17.92,0-24.35-2A25.27,25.27,0,0,1,2.53,102.36C.5,95.93.5,90,.5,78V42c0-11.95,0-17.92,2-24.35A25.28,25.28,0,0,1,17.64,2.53C24.07.5,30,.5,42,.5h0"/></mask></defs><title>instagram</title><g class="cls-2"><g id="App_Icon" data-name="App Icon"><g id="instagram"><rect class="cls-3" x="-11" y="-7" width="152" height="141"/><path class="cls-1" d="M60,23.11c12,0,13.44,0,18.18.26a24.9,24.9,0,0,1,8.36,1.55,14.9,14.9,0,0,1,8.54,8.54,24.9,24.9,0,0,1,1.55,8.36c.22,4.75.26,6.17.26,18.18s0,13.44-.26,18.18a24.9,24.9,0,0,1-1.55,8.36,14.9,14.9,0,0,1-8.54,8.54,24.9,24.9,0,0,1-8.36,1.55c-4.74.22-6.17.26-18.18.26s-13.44,0-18.18-.26a24.9,24.9,0,0,1-8.36-1.55,14.9,14.9,0,0,1-8.54-8.54,24.9,24.9,0,0,1-1.55-8.36c-.22-4.75-.26-6.17-.26-18.18s0-13.44.26-18.18a24.9,24.9,0,0,1,1.55-8.36,14.9,14.9,0,0,1,8.54-8.54,24.9,24.9,0,0,1,8.36-1.55c4.75-.22,6.17-.26,18.18-.26M60,15c-12.22,0-13.75.05-18.55.27a33,33,0,0,0-10.92,2.09A23,23,0,0,0,17.36,30.52a33,33,0,0,0-2.09,10.92C15.05,46.25,15,47.78,15,60s.05,13.75.27,18.55a33,33,0,0,0,2.09,10.92,23,23,0,0,0,13.16,13.16,33,33,0,0,0,10.92,2.09c4.8.22,6.33.27,18.55.27s13.75-.05,18.55-.27a33,33,0,0,0,10.92-2.09,23,23,0,0,0,13.16-13.16,33,33,0,0,0,2.09-10.92c.22-4.8.27-6.33.27-18.55s-.05-13.75-.27-18.55a33,33,0,0,0-2.09-10.92A23,23,0,0,0,89.48,17.36a33,33,0,0,0-10.92-2.09C73.75,15.05,72.22,15,60,15Z"/><path class="cls-1" d="M60,36.89A23.11,23.11,0,1,0,83.11,60,23.11,23.11,0,0,0,60,36.89ZM60,75A15,15,0,1,1,75,60,15,15,0,0,1,60,75Z"/><circle class="cls-1" cx="84.02" cy="35.98" r="5.4"/></g></g></g></svg>