<svg id="clipping_mask" data-name="clipping mask" xmlns="http://www.w3.org/2000/svg" xmlns:xlink="http://www.w3.org/1999/xlink" viewBox="0 0 120 120"><defs><style>.cls-1{fill:#fff;}.cls-2{mask:url(#mask);}.cls-3{fill:#007bb5;}</style><mask id="mask" x="0" y="-0.06" width="120" height="120" maskUnits="userSpaceOnUse"><path class="cls-1" d="M42,.5H78c11.95,0,17.92,0,24.35,2a25.28,25.28,0,0,1,15.11,15.11c2,6.43,2,12.4,2,24.35V78c0,11.95,0,17.92-2,24.35a25.27,25.27,0,0,1-15.11,15.11c-6.43,2-12.4,2-24.35,2H42c-11.95,0-17.92,0-24.35-2A25.27,25.27,0,0,1,2.53,102.36C.5,95.93.5,90,.5,78V42c0-11.95,0-17.92,2-24.35A25.28,25.28,0,0,1,17.64,2.53C24.07.5,30,.5,42,.5h0"/></mask></defs><title>linkedin</title><g class="cls-2"><g id="App_Icon" data-name="App Icon"><g id="linkedin"><path class="cls-3" d="M111.12-.06H8.86A8.76,8.76,0,0,0,0,8.59V111.28a8.76,8.76,0,0,0,8.86,8.66H111.12a8.78,8.78,0,0,0,8.88-8.66V8.59A8.78,8.78,0,0,0,111.12-.06Z"/><path class="cls-1" d="M17.79,44.93h17.8v57.27H17.79Zm8.9-28.47A10.32,10.32,0,1,1,16.37,26.78,10.32,10.32,0,0,1,26.7,16.46"/><path class="cls-1" d="M46.76,44.93H63.83v7.83h.24c2.38-4.5,8.18-9.25,16.84-9.25,18,0,21.35,11.86,21.35,27.28v31.41H84.47V74.34c0-6.64-.12-15.18-9.25-15.18S64.54,66.4,64.54,73.86v28.33H46.76Z"/></g></g></g></svg>