<svg id="mimo" xmlns="http://www.w3.org/2000/svg" viewBox="0 0 1570 200"><defs><style>.cls-1{fill:#fff;}.cls-2{fill:#8f2d56;}.cls-3{fill:#08b;}.cls-4{fill:#ffd166;}.cls-5{fill:#ef476f;}.cls-6{fill:#485b89;}.cls-7{fill:#16ac5b;}.cls-8{fill:#f78c6b;}.cls-9{fill:#263238;}</style></defs><title>powered by mimo</title><path class="cls-1" d="M1570,200H0L141.19,58.81A202,202,0,0,1,284,0H1286a202,202,0,0,1,142.81,58.81Z"/><path class="cls-2" d="M875.72,164.15h0a19.9,19.9,0,0,1-19.86-19.86V49.69a19.91,19.91,0,0,1,19.86-19.86h0a19.91,19.91,0,0,1,19.86,19.86V144.3A19.91,19.91,0,0,1,875.72,164.15Z"/><path class="cls-3" d="M941.41,143.43h0a19.92,19.92,0,0,1-27.66-4.88L859.49,61.07a19.92,19.92,0,0,1,4.88-27.66h0A19.92,19.92,0,0,1,892,38.29l54.26,77.51A19.94,19.94,0,0,1,941.41,143.43Z"/><path class="cls-4" d="M995.67,33.38h0A19.92,19.92,0,0,1,1000.56,61l-54.27,77.48a19.92,19.92,0,0,1-27.66,4.88h0a19.92,19.92,0,0,1-4.88-27.66L968,38.24A20,20,0,0,1,995.67,33.38Z"/><path class="cls-5" d="M984.3,164.15h0a19.9,19.9,0,0,0,19.86-19.86V49.69A19.91,19.91,0,0,0,984.3,29.83h0a19.91,19.91,0,0,0-19.86,19.86V144.3A19.91,19.91,0,0,0,984.3,164.15Z"/><path class="cls-6" d="M882.68,31.1a4.89,4.89,0,0,0-.54-.19l-.23-.07a20.06,20.06,0,0,0-11.26-.33l-.14,0-.75.21A6.6,6.6,0,0,0,869,31s-.09,0-.12,0a20,20,0,0,0-9,6.73,1.3,1.3,0,0,1-.14.19,5.67,5.67,0,0,0-.33.47,20,20,0,0,0,.09,22.64l36.07,51.53V49.69A20,20,0,0,0,882.68,31.1Z"/><path class="cls-7" d="M946.27,115.8,930,92.56l-16.24,23.2a19.92,19.92,0,0,0,4.88,27.66h0a19.82,19.82,0,0,0,27.61-27.61Z"/><path class="cls-8" d="M1002.87,42.71A19.94,19.94,0,0,0,984.3,29.83h0a19.91,19.91,0,0,0-19.86,19.86v62.93L1000.56,61a19.82,19.82,0,0,0,2.57-17.59s0-.07,0-.09C1003,43.15,1003,42.92,1002.87,42.71Z"/><path class="cls-9" d="M1132.6,61.29a8.39,8.39,0,0,1,1,2.83,31.93,31.93,0,0,1,.16,3.67V126q0,7.24-4,8.5a17,17,0,0,1-5,.63,17.72,17.72,0,0,1-4.83-.53,8.24,8.24,0,0,1-2.73-1.26,4.72,4.72,0,0,1-1.47-2.1,20.82,20.82,0,0,1-.53-5.46V90.66q-2.63,3.25-7.66,10.34t-6.4,8.88l-1.89,2.47a10.06,10.06,0,0,1-2.57,1.89,8.8,8.8,0,0,1-8.71.11,9.68,9.68,0,0,1-2.78-2.15l-.83-1.15q-2.1-2.62-8.29-11.18t-6.72-9.19V126a30.46,30.46,0,0,1-.16,3.62,7.48,7.48,0,0,1-1,2.68q-1.57,2.83-8.18,2.83-6.4,0-8-2.83a7.43,7.43,0,0,1-1-2.73,33.18,33.18,0,0,1-.16-3.78V67.58A30.5,30.5,0,0,1,1051,64a8.39,8.39,0,0,1,1-2.78q1.57-2.73,8.18-2.73a15.52,15.52,0,0,1,4.88.68,6.33,6.33,0,0,1,2.68,1.42l.63.63,23.83,31.28Q1110,68.85,1116,61.29q1.78-2.83,8.45-2.83T1132.6,61.29Z"/><path class="cls-9" d="M1142.15,67.58a30.5,30.5,0,0,1,.16-3.62,8.39,8.39,0,0,1,1-2.78q1.47-2.83,8.18-2.83,7.34,0,8.71,3.88a21,21,0,0,1,.53,5.46V126a30.29,30.29,0,0,1-.16,3.67,8.46,8.46,0,0,1-1,2.73q-1.47,2.83-8.18,2.83-7.35,0-8.61-4a16.47,16.47,0,0,1-.63-5.35Z"/><path class="cls-9" d="M1250.88,61.29a8.39,8.39,0,0,1,1,2.83,32,32,0,0,1,.16,3.67V126q0,7.24-4,8.5a17,17,0,0,1-5,.63,17.72,17.72,0,0,1-4.83-.53,8.44,8.44,0,0,1-2.72-1.26,4.72,4.72,0,0,1-1.47-2.1,20.82,20.82,0,0,1-.53-5.46V90.66q-2.62,3.25-7.66,10.34t-6.4,8.88l-1.89,2.47a10.06,10.06,0,0,1-2.57,1.89,8.8,8.8,0,0,1-8.71.11,9.68,9.68,0,0,1-2.78-2.15l-.84-1.15q-2.1-2.62-8.29-11.18t-6.73-9.19V126a30.46,30.46,0,0,1-.16,3.62,7.48,7.48,0,0,1-1,2.68q-1.57,2.83-8.18,2.83-6.4,0-8-2.83a7.43,7.43,0,0,1-1-2.73,33.18,33.18,0,0,1-.16-3.78V67.58a30.5,30.5,0,0,1,.16-3.62,8.39,8.39,0,0,1,1-2.78q1.57-2.73,8.18-2.73a15.52,15.52,0,0,1,4.88.68,6.33,6.33,0,0,1,2.68,1.42l.63.63,23.83,31.28q17.84-23.61,23.83-31.17,1.78-2.83,8.45-2.83T1250.88,61.29Z"/><path class="cls-9" d="M1296.54,57.4a37.24,37.24,0,0,1,27,11.23Q1335,79.86,1335,96.5T1324,124.83a35.3,35.3,0,0,1-26.86,11.7A36.35,36.35,0,0,1,1270,125a38.18,38.18,0,0,1-11.18-27.5A42.27,42.27,0,0,1,1262,81.17a37.87,37.87,0,0,1,8.4-12.75,39.31,39.31,0,0,1,12.07-8.08A35.22,35.22,0,0,1,1296.54,57.4ZM1277.43,97q0,9.34,6,15.17T1297,118a19.06,19.06,0,0,0,13.43-5.67q6-5.67,6-15.22t-6-15.32A19,19,0,0,0,1296.85,76q-7.45,0-13.43,5.83T1277.43,97Z"/><path class="cls-9" d="M243.51,135.53V63.81h24.64A50.89,50.89,0,0,1,279.26,65a25.1,25.1,0,0,1,9,3.85,19.07,19.07,0,0,1,6.1,7.15,24.06,24.06,0,0,1,2.25,10.94,24.58,24.58,0,0,1-2.25,10.89,21.13,21.13,0,0,1-6.1,7.59,26,26,0,0,1-8.91,4.4,39.45,39.45,0,0,1-10.78,1.43h-8.91v24.31Zm16.17-37.18h7.92q13.2,0,13.2-11.44,0-5.61-3.52-7.92t-10.12-2.31h-7.48Z"/><path class="cls-9" d="M328.87,136.85a26.86,26.86,0,0,1-10-1.93,25.34,25.34,0,0,1-8.53-5.55,26.62,26.62,0,0,1-5.88-9,31.63,31.63,0,0,1-2.2-12.16,31.64,31.64,0,0,1,2.2-12.16,26.63,26.63,0,0,1,5.88-9,25.39,25.39,0,0,1,8.53-5.56,26.86,26.86,0,0,1,10-1.92,26.46,26.46,0,0,1,10,1.92,25.57,25.57,0,0,1,8.47,5.56,26.69,26.69,0,0,1,5.88,9,31.66,31.66,0,0,1,2.2,12.16,31.65,31.65,0,0,1-2.2,12.16,26.68,26.68,0,0,1-5.88,9,25.52,25.52,0,0,1-8.47,5.55A26.46,26.46,0,0,1,328.87,136.85Zm0-13.09a8.2,8.2,0,0,0,7.48-4.18q2.53-4.18,2.53-11.33t-2.53-11.33a8.83,8.83,0,0,0-15,0q-2.48,4.18-2.47,11.33t2.47,11.33A8.17,8.17,0,0,0,328.87,123.76Z"/><path class="cls-9" d="M374.74,135.53,361.1,81h16.06l5.28,25.3q.66,4.07,1.21,8t1.21,8.14h.44q.77-4.18,1.49-8.25t1.71-7.92l6-25.3h14l6.16,25.3q1,4.07,1.76,8t1.65,8.14h.44q.77-4.18,1.27-8.14t1.26-8L426.22,81h15l-13.09,54.56H409.17l-5-21.78q-.88-3.85-1.54-7.7t-1.43-8.25h-.44q-.77,4.4-1.37,8.25t-1.37,7.7l-4.84,21.78Z"/><path class="cls-9" d="M474.51,136.85a30.39,30.39,0,0,1-10.89-1.93,25,25,0,0,1-8.8-5.61,25.62,25.62,0,0,1-5.83-9,32.68,32.68,0,0,1-2.09-12.1,31,31,0,0,1,2.2-11.94,28.23,28.23,0,0,1,5.77-9,25.1,25.1,0,0,1,8.2-5.67,24.05,24.05,0,0,1,9.57-2,24.34,24.34,0,0,1,10.17,2,20.1,20.1,0,0,1,7.26,5.5,23.35,23.35,0,0,1,4.35,8.3,36.21,36.21,0,0,1,1.43,10.4,38.15,38.15,0,0,1-.22,4.18q-.22,2-.44,3H462.52q1.1,5.94,4.89,8.75a15.2,15.2,0,0,0,9.29,2.8,22.46,22.46,0,0,0,11.77-3.63l5.39,9.79a35.81,35.81,0,0,1-9.29,4.51A32.67,32.67,0,0,1,474.51,136.85Zm-12.1-34.54H482.1A12.39,12.39,0,0,0,480,94.83Q477.92,92,473,92a10,10,0,0,0-6.77,2.53Q463.29,97,462.41,102.31Z"/><path class="cls-9" d="M507.07,135.53V81h13.2l1.1,9.57h.44A21.11,21.11,0,0,1,529,82.29a15.55,15.55,0,0,1,8.36-2.64,21.6,21.6,0,0,1,3.79.27,11.67,11.67,0,0,1,2.69.83l-2.64,14a26.76,26.76,0,0,0-2.86-.66,19,19,0,0,0-3.08-.22A11.8,11.8,0,0,0,528.8,96q-3.36,2.2-5.55,7.81v31.68Z"/><path class="cls-9" d="M574.17,136.85a30.39,30.39,0,0,1-10.89-1.93,25,25,0,0,1-8.8-5.61,25.62,25.62,0,0,1-5.83-9,32.68,32.68,0,0,1-2.09-12.1,31,31,0,0,1,2.2-11.94,28.23,28.23,0,0,1,5.77-9,25.1,25.1,0,0,1,8.2-5.67,24.05,24.05,0,0,1,9.57-2,24.34,24.34,0,0,1,10.17,2,20.1,20.1,0,0,1,7.26,5.5,23.35,23.35,0,0,1,4.35,8.3,36.21,36.21,0,0,1,1.43,10.4,38.15,38.15,0,0,1-.22,4.18q-.22,2-.44,3H562.18q1.1,5.94,4.89,8.75a15.2,15.2,0,0,0,9.29,2.8,22.46,22.46,0,0,0,11.77-3.63l5.39,9.79a35.81,35.81,0,0,1-9.29,4.51A32.67,32.67,0,0,1,574.17,136.85Zm-12.1-34.54h19.69a12.39,12.39,0,0,0-2.09-7.48q-2.09-2.86-7-2.86a10,10,0,0,0-6.77,2.53Q563,97,562.07,102.31Z"/><path class="cls-9" d="M626.2,136.85a21,21,0,0,1-9.19-2,19.8,19.8,0,0,1-7-5.67,26.72,26.72,0,0,1-4.51-9,41.45,41.45,0,0,1-1.59-12,34.84,34.84,0,0,1,1.92-12,29,29,0,0,1,5.06-9,22,22,0,0,1,7.26-5.67,19.25,19.25,0,0,1,8.42-2,16.44,16.44,0,0,1,7.59,1.54A27,27,0,0,1,640,85.37L639.29,77V58.42h16.17v77.11h-13.2l-1.1-5.39h-.44a25.53,25.53,0,0,1-6.71,4.78A17.31,17.31,0,0,1,626.2,136.85Zm4.18-13.2a10.32,10.32,0,0,0,4.79-1.1,12.12,12.12,0,0,0,4.13-3.85V96.37a12.92,12.92,0,0,0-4.51-2.75,14.25,14.25,0,0,0-4.51-.77q-3.85,0-6.82,3.69t-3,11.5q0,8.14,2.58,11.88A8.37,8.37,0,0,0,630.38,123.65Z"/><path class="cls-9" d="M693.08,135.53V63.81h24.53a61.28,61.28,0,0,1,10.39.83,24.79,24.79,0,0,1,8.36,2.92,15.57,15.57,0,0,1,5.61,5.5,16.53,16.53,0,0,1,2,8.58,18.34,18.34,0,0,1-.66,4.84A18.9,18.9,0,0,1,741.48,91a17.15,17.15,0,0,1-2.92,3.74,10.59,10.59,0,0,1-3.91,2.42v.44a18.12,18.12,0,0,1,5.06,2,16,16,0,0,1,4.07,3.47,15.57,15.57,0,0,1,2.75,4.89,19.29,19.29,0,0,1,1,6.44,19.59,19.59,0,0,1-2.14,9.46,18.46,18.46,0,0,1-5.94,6.54,27.34,27.34,0,0,1-8.85,3.85,44.79,44.79,0,0,1-10.89,1.26Zm16.17-43h7.59q5.94,0,8.63-2.31a7.71,7.71,0,0,0,2.69-6.16q0-4.18-2.75-5.94t-8.47-1.76h-7.7Zm0,30.47h9.13q13.31,0,13.31-9.68,0-4.73-3.3-6.76t-10-2h-9.13Z"/><path class="cls-9" d="M762.38,156.87a28.57,28.57,0,0,1-4.29-.27,21.19,21.19,0,0,1-3.41-.83l2.86-12.32c.51.15,1.1.29,1.76.44a8.7,8.7,0,0,0,1.87.22,9.06,9.06,0,0,0,6.27-2,12.1,12.1,0,0,0,3.3-5.17l.77-2.86L750.5,81h16.28l7.81,23.43q1.21,3.74,2.2,7.59t2.09,7.92h.44q.88-3.85,1.82-7.75t1.92-7.75L789.66,81h15.51l-18.92,55.11a73.76,73.76,0,0,1-4.12,9.08,25.31,25.31,0,0,1-5,6.49,19.12,19.12,0,0,1-6.38,3.9A24.27,24.27,0,0,1,762.38,156.87Z"/></svg>