<svg id="clipping_mask" data-name="clipping mask" xmlns="http://www.w3.org/2000/svg" xmlns:xlink="http://www.w3.org/1999/xlink" viewBox="0 0 120 120"><defs><style>.cls-1{fill:#fff;}.cls-2{mask:url(#mask);}.cls-3{fill:#bd081c;}</style><mask id="mask" x="-6" y="-7" width="139" height="137" maskUnits="userSpaceOnUse"><path class="cls-1" d="M42,.5H78c11.95,0,17.92,0,24.35,2a25.28,25.28,0,0,1,15.11,15.11c2,6.43,2,12.4,2,24.35V78c0,11.95,0,17.92-2,24.35a25.27,25.27,0,0,1-15.11,15.11c-6.43,2-12.4,2-24.35,2H42c-11.95,0-17.92,0-24.35-2A25.27,25.27,0,0,1,2.53,102.36C.5,95.93.5,90,.5,78V42c0-11.95,0-17.92,2-24.35A25.28,25.28,0,0,1,17.64,2.53C24.07.5,30,.5,42,.5h0"/></mask></defs><title>pinterest</title><g class="cls-2"><g id="App_Icon" data-name="App Icon"><g id="pinterest"><rect class="cls-3" x="-6" y="-7" width="139" height="137"/><path class="cls-1" d="M55.5,15.3C40.55,17,25.64,29.07,25,46.35c-.39,10.56,2.61,18.47,12.65,20.7,4.35-7.69-1.4-9.38-2.3-14.95-3.69-22.79,26.29-38.34,42-22.42,10.86,11,3.71,44.92-13.8,41.4-16.77-3.37,8.21-30.35-5.18-35.65-10.88-4.31-16.66,13.17-11.5,21.85-3,14.93-9.54,29-6.9,47.72,8.55-6.2,11.44-18.08,13.8-30.47,4.3,2.61,6.6,5.32,12.08,5.75C86.06,81.84,97.36,60.1,94.6,40,92.15,22.24,74.4,13.19,55.5,15.3Z"/></g></g></g></svg>