<svg id="Layer_2" data-name="Layer 2" xmlns="http://www.w3.org/2000/svg" xmlns:xlink="http://www.w3.org/1999/xlink" viewBox="0 0 120 120"><defs><style>.cls-1{fill:none;}.cls-2{clip-path:url(#clip-path);}.cls-3{fill:#ef5350;}.cls-4{fill:#fff;}</style><clipPath id="clip-path"><path class="cls-1" d="M42,.5H78c11.95,0,17.92,0,24.35,2a25.28,25.28,0,0,1,15.11,15.11c2,6.43,2,12.4,2,24.35V78c0,11.95,0,17.92-2,24.35a25.27,25.27,0,0,1-15.11,15.11c-6.43,2-12.4,2-24.35,2H42c-12,0-17.92,0-24.35-2a25.27,25.27,0,0,1-15.12-15.1C.5,95.93.5,90,.5,78V42c0-12,0-17.92,2-24.35A25.28,25.28,0,0,1,17.64,2.53C24.07.5,30,.5,42,.5h0"/></clipPath></defs><title>sms</title><g class="cls-2"><g id="App_Icon" data-name="App Icon"><g id="instagram"><rect class="cls-3" x="-11" y="-7" width="152" height="141"/><path class="cls-4" d="M74.11,21.19H45.89A10.39,10.39,0,0,0,35.31,31.78V88.22A10.39,10.39,0,0,0,45.89,98.81H74.11A10.39,10.39,0,0,0,84.69,88.22V31.78A10.39,10.39,0,0,0,74.11,21.19ZM67.06,91.75H52.94V88.22H67.06ZM78.34,81.17H41.66V31.78h37V81.17Z"/><path class="cls-1" d="M17.67,17.67h84.67v84.67H17.67Z"/></g></g></g></svg>