<?xml version="1.0" encoding="utf-8"?>
<!-- Generator: Adobe Illustrator 21.1.0, SVG Export Plug-In . SVG Version: 6.00 Build 0)  -->
<svg version="1.1" id="Layer_1" xmlns="http://www.w3.org/2000/svg" xmlns:xlink="http://www.w3.org/1999/xlink" x="0px" y="0px"
	 viewBox="0 0 48 48" style="enable-background:new 0 0 48 48;" xml:space="preserve">
<style type="text/css">
	.st0{opacity:0.5;}
	.st1{fill:none;}
</style>
<path class="st0" d="M31,2H15c-2.8,0-5,2.2-5,5v34c0,2.8,2.2,5,5,5h16c2.8,0,5-2.2,5-5V7C36,4.2,33.8,2,31,2z M23,44
	c-1.7,0-3-1.3-3-3s1.3-3,3-3s3,1.3,3,3S24.7,44,23,44z M32,36H14V8h18V36z"/>
<path class="st1" d="M0,0h48v48H0V0z"/>
</svg>
