<svg id="clipping_mask" data-name="clipping mask" xmlns="http://www.w3.org/2000/svg" xmlns:xlink="http://www.w3.org/1999/xlink" viewBox="0 0 120 120"><defs><style>.cls-1{fill:#fff;}.cls-2{fill:none;}.cls-3{mask:url(#mask);}.cls-4{clip-path:url(#clip-path);}.cls-5{fill:#1da1f2;}</style><mask id="mask" x="0" y="0" width="120" height="120" maskUnits="userSpaceOnUse"><path class="cls-1" d="M42,.5H78c11.95,0,17.92,0,24.35,2a25.28,25.28,0,0,1,15.11,15.11c2,6.43,2,12.4,2,24.35V78c0,11.95,0,17.92-2,24.35a25.27,25.27,0,0,1-15.11,15.11c-6.43,2-12.4,2-24.35,2H42c-11.95,0-17.92,0-24.35-2A25.27,25.27,0,0,1,2.53,102.36C.5,95.93.5,90,.5,78V42c0-11.95,0-17.92,2-24.35A25.28,25.28,0,0,1,17.64,2.53C24.07.5,30,.5,42,.5h0"/></mask><clipPath id="clip-path"><rect class="cls-2" x="0.5" y="0.5" width="119" height="119"/></clipPath></defs><title>twitter</title><g class="cls-3"><g id="App_Icon" data-name="App Icon"><g id="twitter"><g class="cls-4"><g id="Dark_Blue" data-name="Dark Blue"><path class="cls-5" d="M105,120H15A15,15,0,0,1,0,105V15A15,15,0,0,1,15,0h90a15,15,0,0,1,15,15v90A15,15,0,0,1,105,120Z"/></g><g id="Logo_FIXED" data-name="Logo — FIXED"><path class="cls-1" d="M46.08,90.48c28.29,0,43.77-23.46,43.77-43.77,0-.66,0-1.32,0-2a31.34,31.34,0,0,0,7.68-8,31.18,31.18,0,0,1-8.85,2.43,15.48,15.48,0,0,0,6.78-8.52,30.6,30.6,0,0,1-9.78,3.72A15.39,15.39,0,0,0,59,44.91a17,17,0,0,0,.39,3.51A43.68,43.68,0,0,1,27.72,32.34a15.45,15.45,0,0,0,4.77,20.55,15.56,15.56,0,0,1-7-1.92v.21A15.42,15.42,0,0,0,37.86,66.27a15.47,15.47,0,0,1-6.93.27A15.38,15.38,0,0,0,45.3,77.22a30.85,30.85,0,0,1-19.11,6.6,29.6,29.6,0,0,1-3.66-.21,43.76,43.76,0,0,0,23.55,6.87"/></g></g></g></g></g></svg>