<?xml version="1.0" encoding="utf-8"?>
<!-- Generator: Adobe Illustrator 21.1.0, SVG Export Plug-In . SVG Version: 6.00 Build 0)  -->
<svg version="1.1" id="Layer_1" xmlns="http://www.w3.org/2000/svg" xmlns:xlink="http://www.w3.org/1999/xlink" x="0px" y="0px"
	 viewBox="0 0 28 28" style="enable-background:new 0 0 28 28;" xml:space="preserve">
<style type="text/css">
	.st0{opacity:0.5;}
</style>
<title>ticket</title>
<title>ticket</title>
<title>ticket</title>
<title>ticket</title>
<g class="st0">
	<path d="M19.2,10.5H8.8c-0.5,0-1,0.4-1,1v5.1c0,0.5,0.4,1,1,1h10.5c0.5,0,1-0.4,1-1v-5.1C20.2,10.9,19.8,10.5,19.2,10.5z"/>
	<path d="M26,11V8.2c0-1.1-0.9-2-2-2H4c-1.1,0-2,0.9-2,2V11c1.7,0,3,1.3,3,3s-1.3,3-3,3v2.8c0,1.1,0.9,2,2,2h20c1.1,0,2-0.9,2-2V17
		c-1.7,0-3-1.3-3-3S24.4,11,26,11z M21.7,17.7c0,0.7-0.6,1.3-1.3,1.3H7.6c-0.7,0-1.3-0.6-1.3-1.3v-7.4C6.3,9.6,6.9,9,7.6,9h12.8
		c0.7,0,1.3,0.6,1.3,1.3C21.7,10.3,21.7,17.7,21.7,17.7z"/>
</g>
</svg>
